<svg width="32" height="32" viewBox="0 0 32 32" fill="none" xmlns="http://www.w3.org/2000/svg">
<path d="M4.30229 6.09227C4.83878 5.46339 5.68003 5.48644 6.18127 6.14375L22.7344 27.8508C23.2356 28.5081 23.2071 29.5508 22.6706 30.1796C22.1341 30.8085 21.2928 30.7854 20.7916 30.1281L4.23848 8.42111C3.73723 7.7638 3.7658 6.72114 4.30229 6.09227Z" fill="#2B81D0"/>
<path d="M9.43713 29.9231C9.0296 29.1599 9.24144 28.0961 9.91028 27.5471L29.7825 11.2375C30.4514 10.6886 31.324 10.8623 31.7315 11.6256C32.139 12.3889 31.9272 13.4527 31.2583 14.0016L11.3861 30.3113C10.7172 30.8602 9.84466 30.6864 9.43713 29.9231Z" fill="#302DD0"/>
<path d="M11.5211 0.45698C12.0576 -0.171894 12.8989 -0.148842 13.4001 0.508468L29.9532 22.2155C30.4545 22.8728 30.4259 23.9155 29.8894 24.5443C29.3529 25.1732 28.5117 25.1502 28.0104 24.4929L11.4573 2.78582C10.9561 2.12851 10.9846 1.08585 11.5211 0.45698Z" fill="#2A81D0"/>
<path d="M1.2073 21.5432C0.799769 20.7799 1.01161 19.7161 1.68046 19.1672L21.5527 2.85755C22.2215 2.30861 23.0941 2.48238 23.5017 3.24567C23.9092 4.00896 23.6974 5.07273 23.0285 5.62167L3.15627 21.9313C2.48742 22.4803 1.61484 22.3065 1.2073 21.5432Z" fill="#302DD0"/>
</svg>
