<svg width="30" height="22" viewBox="0 0 30 22" fill="none" xmlns="http://www.w3.org/2000/svg">
<path d="M7.26668 17C8.46668 17 9.62779 17.1389 10.75 17.4167C11.8722 17.6945 12.9778 18.1112 14.0667 18.6667V4.43337C13.0667 3.76671 11.9833 3.25004 10.8167 2.88337C9.65001 2.51671 8.46668 2.33337 7.26668 2.33337C6.42223 2.33337 5.59445 2.43893 4.78334 2.65004C3.97223 2.86115 3.15557 3.12226 2.33334 3.43337V17.9C3.02223 17.5889 3.80557 17.3612 4.68334 17.2167C5.56112 17.0723 6.42223 17 7.26668 17ZM16.0667 18.6667C17.1778 18.1112 18.2667 17.6945 19.3333 17.4167C20.4 17.1389 21.5333 17 22.7333 17C23.5778 17 24.45 17.0667 25.35 17.2C26.25 17.3334 27.0222 17.5112 27.6667 17.7334V3.43337C26.9111 3.0556 26.1111 2.77782 25.2667 2.60004C24.4222 2.42226 23.5778 2.33337 22.7333 2.33337C21.5333 2.33337 20.3722 2.51671 19.25 2.88337C18.1278 3.25004 17.0667 3.76671 16.0667 4.43337V18.6667ZM15.0667 21.6667C13.9333 20.8223 12.7 20.1723 11.3667 19.7167C10.0333 19.2612 8.66668 19.0334 7.26668 19.0334C6.11112 19.0334 4.86112 19.2612 3.51668 19.7167C2.17223 20.1723 1.11112 20.6445 0.333344 21.1334V2.06671C1.26668 1.53337 2.35557 1.11115 3.60001 0.800041C4.84445 0.488929 6.06668 0.333374 7.26668 0.333374C8.66668 0.333374 10.0278 0.522263 11.35 0.900041C12.6722 1.27782 13.9111 1.8556 15.0667 2.63337C16.2 1.8556 17.4167 1.27782 18.7167 0.900041C20.0167 0.522263 21.3556 0.333374 22.7333 0.333374C23.9333 0.333374 25.1556 0.494485 26.4 0.816708C27.6445 1.13893 28.7333 1.5556 29.6667 2.06671V21.1334C28.9111 20.6223 27.8556 20.1445 26.5 19.7C25.1445 19.2556 23.8889 19.0334 22.7333 19.0334C21.3333 19.0334 19.9889 19.2667 18.7 19.7334C17.4111 20.2 16.2 20.8445 15.0667 21.6667Z" fill="#1B17DD"/>
</svg>
