<svg width="24" height="24" viewBox="0 0 24 24" fill="none" xmlns="http://www.w3.org/2000/svg">
<path d="M22.5 24C19.7889 24 17.0944 23.3389 14.4167 22.0167C11.7389 20.6944 9.33333 18.9667 7.2 16.8333C5.06667 14.7 3.33333 12.2889 2 9.6C0.666667 6.91111 0 4.21111 0 1.5C0 1.25556 0.0111112 1 0.0333335 0.733333C0.0555557 0.466667 0.0888888 0.222222 0.133333 0H7.2L8.53333 6.3L4.63333 10.2333C5.87778 12.3 7.27222 14.1 8.81667 15.6333C10.3611 17.1667 12.1111 18.4667 14.0667 19.5333L17.9667 15.5L24 16.8333V23.9C23.7778 23.9222 23.5333 23.9444 23.2667 23.9667C23 23.9889 22.7444 24 22.5 24ZM3.63333 8.4L6.33333 5.66667L5.56667 2H2C2 2.86667 2.13333 3.81667 2.4 4.85C2.66667 5.88333 3.07778 7.06667 3.63333 8.4ZM15.9333 20.5C16.8444 20.9222 17.8333 21.2667 18.9 21.5333C19.9667 21.8 21 21.9556 22 22V18.4333L18.5667 17.7333L15.9333 20.5Z" fill="#1B17DD"/>
</svg>
