<svg width="32" height="32" viewBox="0 0 32 32" fill="none" xmlns="http://www.w3.org/2000/svg">
<path d="M3.8329 6.77342C4.36939 6.14454 5.21064 6.1676 5.71188 6.82491L22.265 28.5319C22.7662 29.1892 22.7377 30.2319 22.2012 30.8608C21.6647 31.4897 20.8234 31.4666 20.3222 30.8093L3.76909 9.10226C3.26784 8.44495 3.29641 7.40229 3.8329 6.77342Z" fill="#2B81D0"/>
<path d="M8.96774 30.6043C8.56021 29.841 8.77204 28.7772 9.44089 28.2283L29.3131 11.9187C29.982 11.3697 30.8546 11.5435 31.2621 12.3068C31.6696 13.0701 31.4578 14.1338 30.7889 14.6828L10.9167 30.9924C10.2479 31.5414 9.37527 31.3676 8.96774 30.6043Z" fill="#302DD0"/>
<path d="M11.0517 1.13813C11.5882 0.509258 12.4295 0.53231 12.9307 1.18962L29.4838 22.8967C29.9851 23.554 29.9565 24.5966 29.42 25.2255C28.8835 25.8544 28.0423 25.8313 27.541 25.174L10.9879 3.46697C10.4867 2.80966 10.5153 1.76701 11.0517 1.13813Z" fill="#2A81D0"/>
<path d="M0.737912 22.2244C0.330378 21.4611 0.542216 20.3973 1.21107 19.8483L21.0833 3.53871C21.7522 2.98976 22.6247 3.16353 23.0323 3.92682C23.4398 4.69011 23.228 5.75388 22.5591 6.30283L2.68688 22.6125C2.01803 23.1614 1.14545 22.9876 0.737912 22.2244Z" fill="#302DD0"/>
</svg>
