<svg width="30" height="26" viewBox="0 0 30 26" fill="none" xmlns="http://www.w3.org/2000/svg">
<path d="M25.7 19.8334L24.0333 18.1667C25.1 17.0334 25.9167 15.8723 26.4833 14.6834C27.05 13.4945 27.3333 12.0334 27.3333 10.3001C27.3333 8.56672 27.05 7.10561 26.4833 5.91672C25.9167 4.72783 25.1 3.56672 24.0333 2.43339L25.7 0.766724C26.9445 2.05561 27.9167 3.46117 28.6167 4.98339C29.3167 6.50561 29.6667 8.27784 29.6667 10.3001C29.6667 12.3223 29.3167 14.0945 28.6167 15.6167C27.9167 17.1389 26.9445 18.5445 25.7 19.8334ZM21.0667 15.1001L19.4 13.4334C19.8 12.9889 20.1111 12.5167 20.3333 12.0167C20.5556 11.5167 20.6667 10.9445 20.6667 10.3001C20.6667 9.65561 20.5556 9.08339 20.3333 8.58339C20.1111 8.08339 19.8 7.61117 19.4 7.16672L21.0667 5.50006C21.6445 6.12228 22.1111 6.85006 22.4667 7.68339C22.8222 8.51672 23 9.38895 23 10.3001C23 11.2112 22.8222 12.0834 22.4667 12.9167C22.1111 13.7501 21.6445 14.4778 21.0667 15.1001ZM11 15.3001C9.53334 15.3001 8.33334 14.8334 7.40001 13.9001C6.46668 12.9667 6.00001 11.7667 6.00001 10.3001C6.00001 8.83339 6.46668 7.63339 7.40001 6.70006C8.33334 5.76672 9.53334 5.30006 11 5.30006C12.4667 5.30006 13.6667 5.76672 14.6 6.70006C15.5333 7.63339 16 8.83339 16 10.3001C16 11.7667 15.5333 12.9667 14.6 13.9001C13.6667 14.8334 12.4667 15.3001 11 15.3001ZM0.333344 26.0001V22.8667C0.333344 22.0223 0.544455 21.3056 0.966677 20.7167C1.3889 20.1278 1.93334 19.6667 2.60001 19.3334C3.73334 18.7556 5.07223 18.2778 6.61668 17.9001C8.16112 17.5223 9.62223 17.3334 11 17.3334C12.3778 17.3334 13.8333 17.5223 15.3667 17.9001C16.9 18.2778 18.2333 18.7556 19.3667 19.3334C20.0333 19.6667 20.5833 20.1278 21.0167 20.7167C21.45 21.3056 21.6667 22.0223 21.6667 22.8667V26.0001H0.333344ZM2.33334 24.0001H19.6667V22.8667C19.6667 22.5112 19.5722 22.1834 19.3833 21.8834C19.1945 21.5834 18.9222 21.3334 18.5667 21.1334C17.5 20.5334 16.2889 20.0834 14.9333 19.7834C13.5778 19.4834 12.2667 19.3334 11 19.3334C9.73334 19.3334 8.41668 19.4945 7.05001 19.8167C5.68334 20.1389 4.46668 20.5778 3.40001 21.1334C3.0889 21.2889 2.83334 21.5278 2.63334 21.8501C2.43334 22.1723 2.33334 22.5112 2.33334 22.8667V24.0001ZM11 13.3001C11.8667 13.3001 12.5833 13.0167 13.15 12.4501C13.7167 11.8834 14 11.1667 14 10.3001C14 9.43339 13.7167 8.71672 13.15 8.15006C12.5833 7.58339 11.8667 7.30006 11 7.30006C10.1333 7.30006 9.41668 7.58339 8.85001 8.15006C8.28334 8.71672 8.00001 9.43339 8.00001 10.3001C8.00001 11.1667 8.28334 11.8834 8.85001 12.4501C9.41668 13.0167 10.1333 13.3001 11 13.3001Z" fill="#1B17DD"/>
</svg>
