<svg width="165" height="68" viewBox="0 0 165 68" fill="none" xmlns="http://www.w3.org/2000/svg">
<path d="M13.12 0.599976C17.2533 0.599976 20.4133 1.74664 22.6 4.03998C24.8133 6.33331 25.92 9.58664 25.92 13.8C25.92 18.0133 24.8133 21.2666 22.6 23.56C20.4133 25.8533 17.2533 27 13.12 27H1.92V0.599976H13.12ZM12.44 21.8C14.68 21.8 16.3067 21.1333 17.32 19.8C18.36 18.44 18.88 16.44 18.88 13.8C18.88 11.16 18.36 9.17331 17.32 7.83998C16.3067 6.47998 14.68 5.79998 12.44 5.79998H8.8V21.8H12.44Z" fill="#0B0C12"/>
<path d="M52.1928 6.99998L44.9128 27C44.1661 29.1066 43.3528 30.7866 42.4728 32.04C41.5928 33.2933 40.5528 34.2 39.3528 34.76C38.1528 35.32 36.7128 35.6 35.0328 35.6C33.9128 35.6 32.8861 35.48 31.9528 35.24C31.0195 35 30.2061 34.6666 29.5128 34.24L30.8728 29.64C31.3528 29.9866 31.8595 30.2266 32.3928 30.36C32.9261 30.52 33.6061 30.6 34.4328 30.6C35.2061 30.6 35.8328 30.4666 36.3128 30.2C36.8195 29.9333 37.2195 29.4266 37.5128 28.68L38.0328 27.44L35.7128 22L29.7128 6.99998H37.1928L40.2728 18.4L41.2328 22.64L42.3528 18.24L45.4328 6.99998H52.1928Z" fill="#0B0C12"/>
<path d="M66.0203 27.4C63.807 27.4 61.887 26.9866 60.2603 26.16C58.6603 25.3333 57.4203 24.1466 56.5403 22.6C55.6603 21.0533 55.2203 19.1866 55.2203 17C55.2203 14.8133 55.6603 12.9466 56.5403 11.4C57.4203 9.85331 58.647 8.66664 60.2203 7.83998C61.8203 7.01331 63.647 6.59997 65.7003 6.59997C67.807 6.59997 69.5937 7.01331 71.0603 7.83998C72.5537 8.63998 73.687 9.75998 74.4603 11.2C75.2337 12.6133 75.6203 14.24 75.6203 16.08C75.6203 16.56 75.607 17.04 75.5803 17.52C75.5536 18 75.5137 18.4 75.4603 18.72H59.6203V15.08H72.4603L69.2203 16.32C69.2203 14.72 68.927 13.4933 68.3403 12.64C67.7803 11.7866 66.9003 11.36 65.7003 11.36C64.847 11.36 64.1137 11.56 63.5003 11.96C62.9136 12.36 62.4603 12.9866 62.1403 13.84C61.847 14.6933 61.7003 15.7866 61.7003 17.12C61.7003 18.4266 61.8736 19.4933 62.2203 20.32C62.567 21.12 63.0603 21.7066 63.7003 22.08C64.3403 22.4266 65.1137 22.6 66.0203 22.6C67.0337 22.6 67.8337 22.4 68.4203 22C69.0337 21.6 69.487 21.04 69.7803 20.32L75.2203 22.12C74.847 23.2666 74.1936 24.24 73.2603 25.04C72.3536 25.8133 71.2603 26.4 69.9803 26.8C68.727 27.2 67.407 27.4 66.0203 27.4Z" fill="#0B0C12"/>
<path d="M100.784 1.63998L101.344 6.19998C101.184 6.14664 101.024 6.11998 100.864 6.11998C100.704 6.09331 100.544 6.07998 100.384 6.07998C99.211 6.07998 98.331 6.37331 97.7444 6.95997C97.1844 7.51998 96.9044 8.22664 96.9044 9.07998L94.5044 8.19998C94.5044 7.10664 94.7044 6.05331 95.1044 5.03998C95.5044 4.02664 96.1177 3.19998 96.9444 2.55998C97.7977 1.91998 98.8644 1.59997 100.144 1.59997C100.224 1.59997 100.318 1.59997 100.424 1.59997C100.558 1.59997 100.678 1.61331 100.784 1.63998ZM93.9044 22.56C96.2244 22.56 97.9977 23.0533 99.2244 24.04C100.478 25 101.104 26.3866 101.104 28.2C101.104 29.8533 100.651 31.2266 99.7444 32.32C98.8377 33.4133 97.5577 34.2266 95.9044 34.76C94.2777 35.32 92.3444 35.6 90.1044 35.6C86.4777 35.6 83.8644 35.1466 82.2644 34.24C80.6644 33.3333 79.8644 32.1066 79.8644 30.56C79.8644 29.44 80.3177 28.5333 81.2244 27.84C82.131 27.1466 83.6377 26.7733 85.7444 26.72L85.5844 27.36C83.9577 27.1466 82.7444 26.6666 81.9444 25.92C81.1444 25.1733 80.7444 24.16 80.7444 22.88C80.7444 21.6 81.251 20.56 82.2644 19.76C83.2777 18.96 84.6244 18.52 86.3044 18.44L88.7844 19.6H88.1444C87.1044 19.6533 86.371 19.8266 85.9444 20.12C85.5177 20.4133 85.3044 20.7733 85.3044 21.2C85.3044 21.6533 85.491 22 85.8644 22.24C86.2377 22.4533 86.7977 22.56 87.5444 22.56H93.9044ZM90.1444 31.2C91.4244 31.2 92.4777 31.1066 93.3044 30.92C94.1577 30.76 94.7977 30.52 95.2244 30.2C95.651 29.9066 95.8644 29.56 95.8644 29.16C95.8644 28.76 95.7177 28.44 95.4244 28.2C95.131 27.9866 94.5977 27.88 93.8244 27.88H86.6644C86.1577 27.88 85.7444 28.0133 85.4244 28.28C85.131 28.5466 84.9844 28.88 84.9844 29.28C84.9844 29.8933 85.4377 30.36 86.3444 30.68C87.251 31.0266 88.5177 31.2 90.1444 31.2ZM90.3844 6.59997C92.411 6.59997 94.1444 6.86664 95.5844 7.39998C97.0244 7.93331 98.1177 8.70664 98.8644 9.71998C99.6377 10.7066 100.024 11.9333 100.024 13.4C100.024 14.84 99.6377 16.0666 98.8644 17.08C98.1177 18.0933 97.0244 18.8666 95.5844 19.4C94.1444 19.9066 92.411 20.16 90.3844 20.16C87.211 20.16 84.7977 19.5733 83.1444 18.4C81.5177 17.2266 80.7044 15.56 80.7044 13.4C80.7044 11.9333 81.0777 10.7066 81.8244 9.71998C82.5977 8.70664 83.7044 7.93331 85.1444 7.39998C86.5844 6.86664 88.331 6.59997 90.3844 6.59997ZM90.3844 10.48C89.5044 10.48 88.7844 10.7333 88.2244 11.24C87.691 11.7466 87.4244 12.4666 87.4244 13.4C87.4244 14.3066 87.691 15.0133 88.2244 15.52C88.7844 16.0266 89.5044 16.28 90.3844 16.28C91.2377 16.28 91.9444 16.0266 92.5044 15.52C93.0644 15.0133 93.3444 14.3066 93.3444 13.4C93.3444 12.4666 93.0644 11.7466 92.5044 11.24C91.9444 10.7333 91.2377 10.48 90.3844 10.48Z" fill="#0B0C12"/>
<path d="M115.327 6.59997C117.434 6.59997 119.274 7.01331 120.847 7.83998C122.447 8.63998 123.687 9.82664 124.567 11.4C125.474 12.9466 125.927 14.8133 125.927 17C125.927 19.1866 125.474 21.0666 124.567 22.64C123.687 24.1866 122.447 25.3733 120.847 26.2C119.274 27 117.434 27.4 115.327 27.4C113.274 27.4 111.447 27 109.847 26.2C108.247 25.3733 106.994 24.1866 106.087 22.64C105.207 21.0666 104.767 19.1866 104.767 17C104.767 14.8133 105.207 12.9466 106.087 11.4C106.994 9.82664 108.247 8.63998 109.847 7.83998C111.447 7.01331 113.274 6.59997 115.327 6.59997ZM115.327 11.44C114.554 11.44 113.887 11.6266 113.327 12C112.767 12.3733 112.341 12.9733 112.047 13.8C111.754 14.6266 111.607 15.6933 111.607 17C111.607 18.3066 111.754 19.3733 112.047 20.2C112.341 21 112.767 21.6 113.327 22C113.887 22.3733 114.554 22.56 115.327 22.56C116.127 22.56 116.807 22.3733 117.367 22C117.927 21.6 118.354 21 118.647 20.2C118.941 19.3733 119.087 18.3066 119.087 17C119.087 15.6933 118.941 14.6266 118.647 13.8C118.354 12.9733 117.927 12.3733 117.367 12C116.807 11.6266 116.127 11.44 115.327 11.44Z" fill="#0B0C12"/>
<path d="M13.76 40.2C16.4267 40.2 18.72 40.7466 20.64 41.84C22.5867 42.9066 24.08 44.4533 25.12 46.48C26.16 48.5066 26.68 50.9466 26.68 53.8C26.68 56.6533 26.16 59.0933 25.12 61.12C24.08 63.1466 22.5867 64.7066 20.64 65.8C18.72 66.8666 16.4267 67.4 13.76 67.4C11.0933 67.4 8.78667 66.8666 6.84 65.8C4.89334 64.7066 3.4 63.1466 2.36 61.12C1.32 59.0933 0.800003 56.6533 0.800003 53.8C0.800003 50.9466 1.32 48.5066 2.36 46.48C3.4 44.4533 4.89334 42.9066 6.84 41.84C8.78667 40.7466 11.0933 40.2 13.76 40.2ZM13.76 45.6C12.48 45.6 11.4 45.9066 10.52 46.52C9.64 47.1333 8.97334 48.0533 8.52 49.28C8.06667 50.48 7.84 51.9866 7.84 53.8C7.84 55.5866 8.06667 57.0933 8.52 58.32C8.97334 59.5466 9.64 60.4666 10.52 61.08C11.4 61.6933 12.48 62 13.76 62C15.04 62 16.1067 61.6933 16.96 61.08C17.84 60.4666 18.5067 59.5466 18.96 58.32C19.4133 57.0933 19.64 55.5866 19.64 53.8C19.64 51.9866 19.4133 50.48 18.96 49.28C18.5067 48.0533 17.84 47.1333 16.96 46.52C16.1067 45.9066 15.04 45.6 13.76 45.6Z" fill="#0B0C12"/>
<path d="M39.6522 38.52V60.2C39.6522 61.08 39.7989 61.7066 40.0922 62.08C40.3855 62.4533 40.8789 62.64 41.5722 62.64C41.9722 62.64 42.3055 62.6133 42.5722 62.56C42.8389 62.5066 43.1589 62.4266 43.5322 62.32L43.0922 66.4C42.6122 66.6933 41.9855 66.9333 41.2122 67.12C40.4389 67.3066 39.6789 67.4 38.9322 67.4C36.7989 67.4 35.2522 66.9066 34.2922 65.92C33.3322 64.9333 32.8522 63.32 32.8522 61.08V38.52H39.6522Z" fill="#0B0C12"/>
<path d="M51.4181 44.68C50.0315 44.68 49.0181 44.4266 48.3781 43.92C47.7648 43.3866 47.4581 42.56 47.4581 41.44C47.4581 40.2933 47.7648 39.4666 48.3781 38.96C49.0181 38.4266 50.0315 38.16 51.4181 38.16C52.7781 38.16 53.7781 38.4266 54.4181 38.96C55.0581 39.4666 55.3781 40.2933 55.3781 41.44C55.3781 42.56 55.0581 43.3866 54.4181 43.92C53.7781 44.4266 52.7781 44.68 51.4181 44.68ZM54.8181 47V67H48.0181V47H54.8181Z" fill="#0B0C12"/>
<path d="M74.6588 47H81.6988L74.4988 67H66.3788L59.1788 47H66.3388L70.4588 62.24L74.6588 47Z" fill="#0B0C12"/>
<path d="M95.4891 67.4C93.2757 67.4 91.3557 66.9866 89.7291 66.16C88.1291 65.3333 86.8891 64.1466 86.0091 62.6C85.1291 61.0533 84.6891 59.1866 84.6891 57C84.6891 54.8133 85.1291 52.9466 86.0091 51.4C86.8891 49.8533 88.1157 48.6666 89.6891 47.84C91.2891 47.0133 93.1157 46.6 95.1691 46.6C97.2757 46.6 99.0624 47.0133 100.529 47.84C102.022 48.64 103.156 49.76 103.929 51.2C104.702 52.6133 105.089 54.24 105.089 56.08C105.089 56.56 105.076 57.04 105.049 57.52C105.022 58 104.982 58.4 104.929 58.72H89.0891V55.08H101.929L98.6891 56.32C98.6891 54.72 98.3957 53.4933 97.8091 52.64C97.2491 51.7866 96.3691 51.36 95.1691 51.36C94.3157 51.36 93.5824 51.56 92.9691 51.96C92.3824 52.36 91.9291 52.9866 91.6091 53.84C91.3157 54.6933 91.1691 55.7866 91.1691 57.12C91.1691 58.4266 91.3424 59.4933 91.6891 60.32C92.0357 61.12 92.5291 61.7066 93.1691 62.08C93.8091 62.4266 94.5824 62.6 95.4891 62.6C96.5024 62.6 97.3024 62.4 97.8891 62C98.5024 61.6 98.9557 61.04 99.2491 60.32L104.689 62.12C104.316 63.2666 103.662 64.24 102.729 65.04C101.822 65.8133 100.729 66.4 99.4491 66.8C98.1957 67.2 96.8757 67.4 95.4891 67.4Z" fill="#0B0C12"/>
<path d="M114.293 44.68C112.906 44.68 111.893 44.4266 111.253 43.92C110.64 43.3866 110.333 42.56 110.333 41.44C110.333 40.2933 110.64 39.4666 111.253 38.96C111.893 38.4266 112.906 38.16 114.293 38.16C115.653 38.16 116.653 38.4266 117.293 38.96C117.933 39.4666 118.253 40.2933 118.253 41.44C118.253 42.56 117.933 43.3866 117.293 43.92C116.653 44.4266 115.653 44.68 114.293 44.68ZM117.693 47V67H110.893V47H117.693Z" fill="#0B0C12"/>
<path d="M124.534 67V47H130.534L130.814 51.32C131.32 49.8266 132.067 48.6666 133.054 47.84C134.067 47.0133 135.347 46.6 136.894 46.6C137.4 46.6 137.827 46.64 138.174 46.72C138.547 46.8 138.84 46.9066 139.054 47.04L138.374 52.64C138.107 52.5333 137.76 52.4533 137.334 52.4C136.934 52.32 136.44 52.28 135.854 52.28C135.054 52.28 134.307 52.4533 133.614 52.8C132.92 53.1466 132.36 53.6666 131.934 54.36C131.534 55.0266 131.334 55.88 131.334 56.92V67H124.534Z" fill="#0B0C12"/>
<path d="M154.686 54.32C154.686 53.3866 154.419 52.6533 153.886 52.12C153.379 51.56 152.686 51.28 151.806 51.28C150.926 51.28 150.166 51.5066 149.526 51.96C148.913 52.3866 148.486 53.16 148.246 54.28L142.486 52.92C142.859 51 143.846 49.4666 145.446 48.32C147.046 47.1733 149.299 46.6 152.206 46.6C154.153 46.6 155.806 46.8933 157.166 47.48C158.553 48.04 159.606 48.8933 160.326 50.04C161.073 51.16 161.446 52.5466 161.446 54.2V61.52C161.446 62.56 161.913 63.08 162.846 63.08C163.326 63.08 163.713 63.0266 164.006 62.92L163.606 66.8C162.806 67.1733 161.833 67.36 160.686 67.36C159.646 67.36 158.726 67.2 157.926 66.88C157.126 66.5333 156.499 66.0266 156.046 65.36C155.593 64.6666 155.366 63.8 155.366 62.76V62.52L156.126 62.24C156.126 63.3866 155.779 64.3466 155.086 65.12C154.419 65.8933 153.539 66.4666 152.446 66.84C151.379 67.2133 150.259 67.4 149.086 67.4C147.726 67.4 146.539 67.1866 145.526 66.76C144.513 66.3333 143.726 65.72 143.166 64.92C142.633 64.0933 142.366 63.08 142.366 61.88C142.366 60.44 142.793 59.2533 143.646 58.32C144.526 57.36 145.899 56.6933 147.766 56.32L155.326 54.76L155.286 58.36L151.446 59.16C150.646 59.32 150.046 59.56 149.646 59.88C149.273 60.1733 149.086 60.6266 149.086 61.24C149.086 61.8266 149.299 62.2666 149.726 62.56C150.153 62.8533 150.659 63 151.246 63C151.699 63 152.126 62.9333 152.526 62.8C152.953 62.6666 153.326 62.4666 153.646 62.2C153.966 61.9066 154.219 61.5466 154.406 61.12C154.593 60.6933 154.686 60.1866 154.686 59.6V54.32Z" fill="#0B0C12"/>
</svg>
