<svg width="36" height="26" viewBox="0 0 36 26" fill="none" xmlns="http://www.w3.org/2000/svg">
<path d="M15.856 25.5453C15.856 25.5453 18.25 25.3486 18.924 23.8506C19.621 22.3006 18.302 21.6669 18.302 21.6669C18.302 21.6669 20.216 21.7227 20.924 19.8313C21.592 18.0486 19.966 17.2305 19.966 17.2305C19.966 17.2305 21.837 16.9402 22.383 15.0629C22.842 13.4826 21.216 12.3052 21.216 12.3052H33.424C34.383 12.3052 35.999 11.7926 36 9.9002C36.002 8.00875 34.341 7.57655 33.424 7.57655H12.924C11.924 7.57655 11.924 6.63083 12.924 6.63083H15.59C19.382 6.63083 21.733 4.70344 22.382 4.02914C23.032 3.35483 23.361 2.45261 23.116 1.36219C22.701 -0.487651 21.196 -0.0838259 19.919 0.440106C16.841 1.70454 12.455 2.57177 10.381 2.83563C4.523 3.5837 0.00600226 8.32935 2.2618e-06 14.0746C-0.00399774 20.341 5.298 25.5406 11.924 25.5453H15.856Z" fill="#F7DECE"/>
</svg>
