<svg width="25" height="28" viewBox="0 0 25 28" fill="none" xmlns="http://www.w3.org/2000/svg">
<path d="M20.2333 27.3334C19.1889 27.3334 18.2944 26.9612 17.55 26.2167C16.8056 25.4723 16.4333 24.5779 16.4333 23.5334C16.4333 23.3779 16.45 23.1945 16.4833 22.9834C16.5167 22.7723 16.5667 22.5779 16.6333 22.4001L6.53333 16.5334C6.2 16.9112 5.78889 17.2167 5.3 17.4501C4.81111 17.6834 4.31111 17.8001 3.8 17.8001C2.75556 17.8001 1.86111 17.4279 1.11667 16.6834C0.372222 15.939 0 15.0445 0 14.0001C0 12.9334 0.372222 12.0334 1.11667 11.3001C1.86111 10.5667 2.75556 10.2001 3.8 10.2001C4.31111 10.2001 4.8 10.3001 5.26667 10.5001C5.73333 10.7001 6.15556 10.989 6.53333 11.3667L16.6333 5.56675C16.5667 5.41119 16.5167 5.23341 16.4833 5.03341C16.45 4.83341 16.4333 4.64453 16.4333 4.46675C16.4333 3.40008 16.8056 2.50008 17.55 1.76675C18.2944 1.03341 19.1889 0.666748 20.2333 0.666748C21.3 0.666748 22.2 1.03341 22.9333 1.76675C23.6667 2.50008 24.0333 3.40008 24.0333 4.46675C24.0333 5.51119 23.6667 6.40564 22.9333 7.15008C22.2 7.89453 21.3 8.26675 20.2333 8.26675C19.7222 8.26675 19.2278 8.18341 18.75 8.01675C18.2722 7.85008 17.8667 7.57786 17.5333 7.20008L7.43333 12.8001C7.47778 12.9779 7.51667 13.1834 7.55 13.4167C7.58333 13.6501 7.6 13.8445 7.6 14.0001C7.6 14.1556 7.58333 14.3223 7.55 14.5001C7.51667 14.6779 7.47778 14.8556 7.43333 15.0334L17.5333 20.7667C17.8667 20.4556 18.2556 20.2056 18.7 20.0167C19.1444 19.8279 19.6556 19.7334 20.2333 19.7334C21.3 19.7334 22.2 20.1001 22.9333 20.8334C23.6667 21.5667 24.0333 22.4667 24.0333 23.5334C24.0333 24.5779 23.6667 25.4723 22.9333 26.2167C22.2 26.9612 21.3 27.3334 20.2333 27.3334ZM20.2333 6.26675C20.7444 6.26675 21.1722 6.09453 21.5167 5.75008C21.8611 5.40564 22.0333 4.97786 22.0333 4.46675C22.0333 3.95564 21.8611 3.52786 21.5167 3.18341C21.1722 2.83897 20.7444 2.66675 20.2333 2.66675C19.7222 2.66675 19.2944 2.83897 18.95 3.18341C18.6056 3.52786 18.4333 3.95564 18.4333 4.46675C18.4333 4.97786 18.6056 5.40564 18.95 5.75008C19.2944 6.09453 19.7222 6.26675 20.2333 6.26675ZM3.8 15.8001C4.31111 15.8001 4.73889 15.6279 5.08333 15.2834C5.42778 14.939 5.6 14.5112 5.6 14.0001C5.6 13.489 5.42778 13.0612 5.08333 12.7167C4.73889 12.3723 4.31111 12.2001 3.8 12.2001C3.28889 12.2001 2.86111 12.3723 2.51667 12.7167C2.17222 13.0612 2 13.489 2 14.0001C2 14.5112 2.17222 14.939 2.51667 15.2834C2.86111 15.6279 3.28889 15.8001 3.8 15.8001ZM20.2333 25.3334C20.7444 25.3334 21.1722 25.1612 21.5167 24.8167C21.8611 24.4723 22.0333 24.0445 22.0333 23.5334C22.0333 23.0223 21.8611 22.5945 21.5167 22.2501C21.1722 21.9056 20.7444 21.7334 20.2333 21.7334C19.7222 21.7334 19.2944 21.9056 18.95 22.2501C18.6056 22.5945 18.4333 23.0223 18.4333 23.5334C18.4333 24.0445 18.6056 24.4723 18.95 24.8167C19.2944 25.1612 19.7222 25.3334 20.2333 25.3334Z" fill="#1B17DD"/>
</svg>
